<?xml version="1.0" encoding="UTF-8" standalone="no"?>
<svg
   xmlns:dc="http://purl.org/dc/elements/1.1/"
   xmlns:cc="http://creativecommons.org/ns#"
   xmlns:rdf="http://www.w3.org/1999/02/22-rdf-syntax-ns#"
   xmlns:svg="http://www.w3.org/2000/svg"
   xmlns="http://www.w3.org/2000/svg"
   xmlns:sodipodi="http://sodipodi.sourceforge.net/DTD/sodipodi-0.dtd"
   xmlns:inkscape="http://www.inkscape.org/namespaces/inkscape"
   width="1550"
   height="278.034"
   viewBox="0 0 410.10418 73.56316"
   version="1.1"
   id="svg8"
   sodipodi:docname="desenhando.svg"
   inkscape:version="1.0.1 (3bc2e813f5, 2020-09-07)">
  <defs
     id="defs2" />
  <sodipodi:namedview
     id="base"
     pagecolor="#ffffff"
     bordercolor="#666666"
     borderopacity="1.0"
     inkscape:pageopacity="0.0"
     inkscape:pageshadow="2"
     inkscape:zoom="0.7"
     inkscape:cx="935.52813"
     inkscape:cy="331.50685"
     inkscape:document-units="px"
     inkscape:current-layer="layer1"
     inkscape:document-rotation="0"
     showgrid="false"
     inkscape:window-width="1920"
     inkscape:window-height="1001"
     inkscape:window-x="-9"
     inkscape:window-y="-9"
     inkscape:window-maximized="1"
     inkscape:snap-page="true"
     units="px" />
  <metadata
     id="metadata5">
    <rdf:RDF>
      <cc:Work
         rdf:about="">
        <dc:format>image/svg+xml</dc:format>
        <dc:type
           rdf:resource="http://purl.org/dc/dcmitype/StillImage" />
        <dc:title></dc:title>
      </cc:Work>
    </rdf:RDF>
  </metadata>
  <g
     inkscape:label="Layer 1"
     inkscape:groupmode="layer"
     id="layer1">
    <path
       fill="#38b000"
       fill-opacity="1"
       d="m 0,8.466667 13.670139,11.297706 c 13.670139,11.19188 41.010417,33.94605 68.350694,45.13792 27.340277,11.29771 54.680557,11.29771 82.020837,1.42875 27.34027,-9.97479 54.68055,-29.55396 82.02083,-33.86666 27.34028,-4.15396 54.68056,6.95854 82.02083,12.7 27.34028,5.63562 54.68056,5.63562 68.3507,5.63562 h 13.67014 V 0 H 396.43403 C 382.76389,0 355.42361,0 328.08333,0 300.74306,0 273.40278,0 246.0625,0 218.72222,0 191.38194,0 164.04167,0 136.70139,0 109.36111,0 82.020833,0 54.680556,0 27.340278,0 13.670139,0 H 0 Z"
       id="path20"
       style="fill:#ff8500;fill-opacity:1;stroke-width:0.274503" />
  </g>
</svg>
